<svg width="49" height="55" viewBox="0 0 49 55" fill="none" xmlns="http://www.w3.org/2000/svg">
<path d="M34.5348 20.9465C34.5352 20.9544 34.5352 20.9623 34.5348 20.9702C34.5348 21.0191 34.5348 21.068 34.5244 21.1184C34.5073 21.2376 34.4821 21.3555 34.4488 21.4712L34.3154 21.9945C34.216 22.3874 34.1152 22.7817 34.0189 23.1805C33.4556 25.4011 32.8927 27.6248 32.3304 29.8514C31.6297 32.6284 30.929 35.404 30.2283 38.1781L29.4011 41.4587C28.989 43.1013 28.5769 44.7448 28.1648 46.3893C27.9118 47.4003 27.6593 48.4118 27.4073 49.4238C27.1365 50.5158 26.8662 51.6099 26.5964 52.7059C26.5074 53.0646 26.4185 53.4263 26.331 53.7866C26.3132 53.8622 26.2955 53.9348 26.2762 54.0134C26.2762 54.0356 26.2525 54.089 26.248 54.1068L26.2376 54.126L26.2065 54.1038C26.1783 54.0727 26.1502 54.0445 26.125 54.0119C26.1067 53.9892 26.0899 53.9655 26.0746 53.9407C26.0746 53.9407 26.039 53.8725 26.0331 53.8533C26.0162 53.805 26.0033 53.7554 25.9945 53.705C25.9924 53.6727 25.9885 53.6405 25.9827 53.6087C25.9827 53.5775 25.9827 53.5464 25.9827 53.5153L26.0019 53.0987C26.0187 52.7459 26.036 52.3926 26.0538 52.0388C26.1714 49.8774 26.3226 47.718 26.5074 45.5606C26.7595 42.6447 27.0722 39.7347 27.471 36.8336C27.8935 33.7635 28.4109 30.7008 29.1106 27.6796C29.4352 26.2847 29.7999 24.8986 30.2298 23.5288C30.3286 23.2086 30.4334 22.8899 30.5441 22.5727C30.5441 22.5727 30.5441 22.5564 30.5545 22.543L30.5663 22.5119V22.503C30.5709 22.4914 30.5749 22.4795 30.5782 22.4674C30.6063 22.3903 30.633 22.3192 30.6597 22.2391C30.719 22.0761 30.7783 21.9145 30.8391 21.7529C31.057 21.1733 31.2927 20.5996 31.5536 20.0377C31.6129 19.9073 31.6678 19.7753 31.7389 19.6508C31.755 19.617 31.7733 19.5843 31.7938 19.553C31.8101 19.5381 31.8293 19.5218 31.8382 19.5115C31.8471 19.5011 31.902 19.4551 31.9287 19.427C31.9287 19.427 31.9361 19.427 31.939 19.4181C31.9642 19.4083 31.9885 19.3964 32.0117 19.3825C32.0393 19.3852 32.0671 19.3852 32.0947 19.3825C32.1085 19.381 32.1224 19.381 32.1362 19.3825H32.1762H32.194H32.2074H32.2296L32.7514 19.5456L34.1093 20.0511L34.1182 20.0585L34.1286 20.0703C34.1612 20.1059 34.1953 20.1385 34.2279 20.1741C34.2876 20.2487 34.3425 20.3269 34.3924 20.4083C34.3918 20.4118 34.3918 20.4153 34.3924 20.4187L34.3999 20.4424C34.4206 20.5032 34.4458 20.561 34.4636 20.6233C34.4894 20.716 34.5078 20.8107 34.5185 20.9064C34.5282 20.9176 34.5339 20.9317 34.5348 20.9465Z" fill="#314133"/>
<path d="M27.8028 24.5667C27.8455 24.5494 27.8922 24.5445 27.9375 24.5526C27.9829 24.5607 28.025 24.5815 28.059 24.6124C28.0931 24.6434 28.1178 24.6834 28.1301 24.7277C28.1425 24.7721 28.1421 24.819 28.129 24.8631C27.3155 27.8803 26.6755 30.9416 26.2122 34.0319C25.976 35.5223 25.7665 37.016 25.5836 38.5133L25.2279 38.6956L21.7397 36.8011L17.1694 34.3151L13.195 32.1641C12.7711 31.9343 12.3501 31.6956 11.9261 31.4644C11.8856 31.4426 11.8521 31.4097 11.8297 31.3695C11.8072 31.3293 11.7967 31.2836 11.7994 31.2377C11.802 31.1918 11.8177 31.1475 11.8446 31.1102C11.8715 31.0729 11.9085 31.0441 11.9513 31.0271L12.1499 30.947L16.6432 29.1162L22.0792 26.9044L26.777 24.9906L27.8028 24.5667Z" fill="#314133"/>
<path d="M25.4829 40.0892C25.5168 40.1068 25.546 40.1322 25.5682 40.1632C25.5903 40.1943 25.6048 40.2302 25.6105 40.2679C25.6161 40.3057 25.6127 40.3442 25.6006 40.3804C25.5885 40.4166 25.568 40.4494 25.5407 40.4761L23.0502 42.9532L18.9173 47.0684C18.8895 47.0964 18.8554 47.1172 18.8178 47.129C18.7802 47.1408 18.7403 47.1432 18.7016 47.136C18.6629 47.1289 18.6265 47.1124 18.5956 47.0879C18.5647 47.0635 18.5403 47.0319 18.5244 46.9958L18.3273 46.56L17.4986 44.7188C17.1616 43.9746 16.8256 43.2295 16.4905 42.4833C16.1229 41.663 15.7538 40.8428 15.3832 40.0225L14.2639 37.5409L13.2262 35.2343L12.4406 33.4984L12.7785 33.1841L15.4113 34.6146L19.9861 37.0962C21.3104 37.8157 22.6347 38.5346 23.959 39.2531C24.4689 39.5303 24.973 39.8179 25.4829 40.0892Z" fill="#314133"/>
<path d="M17.0719 48.134C17.0866 48.1672 17.0936 48.2033 17.0925 48.2396C17.0915 48.2759 17.0823 48.3115 17.0656 48.3437C17.049 48.376 17.0253 48.4041 16.9964 48.4261C16.9675 48.448 16.934 48.4632 16.8984 48.4705L14.4702 48.9701L8.30334 50.2375L8.01575 49.9529V49.9277C8.09975 49.4642 8.18326 49.0012 8.26628 48.5387C8.39228 47.8494 8.51532 47.1615 8.64133 46.4737C8.79155 45.6396 8.94275 44.8045 9.09495 43.9684L9.59749 41.2066C9.76649 40.2766 9.9345 39.3482 10.1015 38.4211C10.2587 37.5594 10.4153 36.6976 10.5714 35.8358C10.6159 35.5853 10.6619 35.3333 10.7078 35.0813L11.1689 35.0234C11.5276 35.819 11.8864 36.6156 12.2451 37.4131L13.3525 39.8739C13.726 40.7011 14.0991 41.5288 14.4717 42.357C14.8186 43.1249 15.1645 43.8933 15.5094 44.6621C15.8059 45.3144 16.0999 45.9672 16.3914 46.6204L17.0244 48.0273C17.0422 48.0673 17.057 48.0999 17.0719 48.134Z" fill="#314133"/>
<path d="M9.03536 32.7141C9.07568 32.6935 9.12095 32.6846 9.16606 32.6883C9.21118 32.6921 9.25435 32.7084 9.29072 32.7353C9.32708 32.7623 9.35519 32.7989 9.37189 32.841C9.38858 32.883 9.3932 32.9289 9.38521 32.9735L9.30071 33.4331C9.17767 34.1209 9.05167 34.8087 8.92862 35.4966C8.77544 36.3327 8.62423 37.1683 8.475 38.0034C8.30798 38.9225 8.14245 39.8421 7.97839 40.7622C7.81434 41.6822 7.64633 42.6107 7.47437 43.5476L7.0074 46.1315L6.87843 46.8431L6.40554 46.8712C5.75723 44.7316 5.10892 42.5925 4.4606 40.4538C4.02922 39.0277 3.58301 37.6046 3.16496 36.1741C3.15607 36.1474 3.14718 36.1207 3.13976 36.094C3.12308 36.0388 3.11508 35.9812 3.11605 35.9235C3.11605 35.845 3.19017 35.7753 3.20351 35.7115C3.35175 35.6404 3.48813 35.5633 3.63045 35.4892L6.22172 34.155L9.03536 32.7141Z" fill="#314133"/>
<path d="M29.3477 19.0775C29.1994 19.4007 29.0823 19.7342 28.9548 20.0574C28.6376 20.8653 28.3544 21.6881 28.098 22.5152L27.9913 22.5553L26.2346 23.2698L22.0141 24.9894L16.9087 27.0648C15.4381 27.6578 13.967 28.2567 12.4955 28.8615C12.156 28.9994 11.8151 29.1343 11.4756 29.2706C11.4756 29.1802 11.4756 29.0898 11.4874 28.9994C11.5171 28.274 11.5477 27.55 11.5794 26.8276C11.6238 25.7652 11.6688 24.7028 11.7143 23.6404C11.7686 22.3359 11.824 21.0318 11.8803 19.7283L12.0626 15.4426L12.245 11.1317L12.414 7.11436C12.4624 5.97882 12.5118 4.8423 12.5622 3.70479C12.5919 3.01546 12.6215 2.32317 12.6497 1.62939C12.6912 1.6709 14.3189 3.35049 15.0912 4.14951L18.2399 7.40788C19.4041 8.61358 20.5683 9.81632 21.7325 11.0161L25.0916 14.4805L27.7911 17.2675L29.3032 18.8225L29.3477 19.0775Z" fill="#314133"/>
<path d="M10.1756 5.13767C10.2003 5.08768 10.2413 5.04766 10.2919 5.02431C10.3425 5.00097 10.3996 4.99572 10.4536 5.00944C10.5076 5.02316 10.5553 5.05502 10.5886 5.09968C10.6219 5.14435 10.6389 5.1991 10.6367 5.25479C10.6233 5.55127 10.6115 5.84775 10.5996 6.14424L10.4217 10.3054C10.3585 11.8323 10.2942 13.3612 10.229 14.892C10.1608 16.4456 10.0946 17.9992 10.0304 19.5527C9.96811 21.0124 9.90634 22.4726 9.84507 23.9333C9.7917 25.1716 9.73932 26.4094 9.68793 27.6468C9.66866 28.1123 9.6479 28.5777 9.62863 29.0417C9.62709 29.0862 9.61328 29.1294 9.58873 29.1666C9.56418 29.2037 9.52985 29.2334 9.48951 29.2522C9.44918 29.2711 9.40441 29.2785 9.36016 29.2735C9.31591 29.2685 9.2739 29.2514 9.23876 29.2241L5.74617 26.5557C4.54837 25.6416 3.34959 24.7264 2.14981 23.8103C1.87112 23.5983 1.58797 23.3878 1.31076 23.1713C1.29346 23.1582 1.27711 23.1438 1.26184 23.1284C1.32354 23.0717 1.37386 23.0038 1.41008 22.9282C1.51237 22.7207 1.61318 22.5131 1.71546 22.3071L2.55007 20.6127C2.95921 19.7815 3.36787 18.9504 3.77603 18.1192L5.28662 15.0699L6.93211 11.7241C7.48456 10.6034 8.03651 9.48265 8.58797 8.36194C9.10583 7.31239 9.6227 6.26234 10.1386 5.2118L10.1756 5.13767Z" fill="#314133"/>
<path d="M10.8471 0.291992C10.8471 0.366113 10.8471 0.440234 10.8367 0.512873L10.8055 0.575135C10.5288 1.14043 10.2511 1.70474 9.97242 2.26806L8.74498 4.7615L7.23735 7.81529L5.59483 11.1611L3.94044 14.5232L2.38835 17.6719C1.95252 18.5614 1.51619 19.4508 1.07937 20.3403C1.04231 20.4159 1.00525 20.4885 0.966706 20.5671C0.959294 20.4099 0.950399 20.2513 0.941505 20.0927C0.856512 18.5411 0.771521 16.989 0.686528 15.4364L0.390044 10.1145C0.309993 8.57182 0.22846 7.03059 0.145444 5.49085C0.0980065 4.64982 0.0520513 3.80978 0.00757866 2.97073C0.00757866 2.92477 -0.00131576 2.87734 0.000166665 2.8299C0.00246251 2.77898 0.0134941 2.72884 0.0327799 2.68166L0.557557 2.56455L5.07302 1.56539L9.90571 0.499531L10.8471 0.291992Z" fill="#314133"/>
<path d="M43.7405 7.73193L44.2149 7.82088C44.0607 9.88441 43.9066 11.9479 43.7524 14.0115C43.5953 16.0977 43.4386 18.1835 43.2825 20.2688C43.2069 21.2857 43.1046 22.3041 43.0542 23.3226C43.0542 23.3226 43.0542 23.3226 43.0542 23.3344L43.0097 23.3774L40.9106 25.5225L37.7975 28.7038C37.7594 28.7428 37.7092 28.7678 37.6552 28.7749C37.6011 28.782 37.5462 28.7707 37.4993 28.7428C37.4524 28.7149 37.4163 28.6721 37.3967 28.6212C37.3771 28.5703 37.3752 28.5142 37.3913 28.4621C37.7263 27.375 38.0604 26.284 38.3934 25.1889C39.0348 23.0958 39.6772 21.0021 40.3206 18.9079C41.0173 16.6289 41.7146 14.3509 42.4123 12.0739L43.7405 7.73193Z" fill="#314133"/>
<path d="M48.3953 5.64825C48.3686 5.78611 48.3227 5.92249 48.2871 6.05888C47.7515 8.08288 47.2168 10.1089 46.6831 12.1368L45.5313 16.4966C45.5156 16.555 45.4788 16.6055 45.4279 16.6382C45.3771 16.6709 45.3159 16.6834 45.2563 16.6734C45.1966 16.6634 45.1429 16.6316 45.1055 16.5841C45.0681 16.5366 45.0497 16.4769 45.0539 16.4166C45.1528 15.0438 45.2556 13.6706 45.3623 12.2969C45.5194 10.2106 45.6756 8.12438 45.8307 6.03812C45.8722 5.49556 45.9212 4.95299 45.9642 4.40746C45.9672 4.367 45.9804 4.32797 46.0025 4.29395C46.0247 4.25994 46.055 4.23205 46.0907 4.21285C46.1265 4.19365 46.1665 4.18376 46.2071 4.18409C46.2476 4.18442 46.2875 4.19496 46.3229 4.21474L47.7075 4.97226C47.9728 5.12199 48.4724 5.25689 48.3953 5.64825Z" fill="#314133"/>
<path d="M36.401 39.7439C36.401 39.7647 36.3906 39.7825 36.3877 39.8017C36.3743 39.8951 36.3461 39.987 36.3269 40.0804L35.6998 42.9193C35.5323 43.6694 35.3648 44.4224 35.1987 45.1725L35.1676 44.9443C34.8207 42.2759 34.4748 39.6075 34.1299 36.9392C34.1258 36.9015 34.1342 36.8636 34.1539 36.8312C34.1736 36.7988 34.2034 36.7738 34.2387 36.7602C34.274 36.7465 34.3129 36.7448 34.3492 36.7555C34.3856 36.7661 34.4174 36.7885 34.4397 36.8191C34.8677 37.4348 35.2966 38.0495 35.7265 38.6632C35.9133 38.9345 36.1238 39.1969 36.2943 39.4786C36.3564 39.5728 36.3904 39.6829 36.3921 39.7958C36.3847 39.8329 36.398 39.7587 36.401 39.7439Z" fill="#314133"/>
<path d="M41.8905 6.55573C41.917 6.49909 41.9644 6.45494 42.0228 6.43254C42.0811 6.41014 42.1459 6.41125 42.2035 6.43562C42.2611 6.46 42.307 6.50575 42.3315 6.56325C42.3561 6.62076 42.3574 6.68555 42.3352 6.744C41.9399 8.02876 41.5446 9.31353 41.1492 10.5983C40.4495 12.8802 39.7508 15.1622 39.0531 17.4441C38.389 19.6114 37.7253 21.7777 37.0622 23.9431C36.5374 25.6567 36.0131 27.3704 35.4894 29.0841C35.2151 29.9736 33.0493 36.0011 32.8106 36.6282C32.6624 37.0284 32.9589 36.2264 32.8106 36.6282C32.8106 36.6282 35.0091 27.0665 35.6272 24.5953C35.8496 23.7187 36.0719 22.8416 36.2943 21.964C36.3388 21.7965 36.3818 21.6275 36.4233 21.4585C36.5283 21.0356 36.4859 20.5896 36.3032 20.194C36.0765 19.7193 35.6804 19.3465 35.1929 19.1489C35.1291 19.1207 39.4326 10.9956 39.4326 10.9956L41.8905 6.55573Z" fill="#314133"/>
<path d="M34.09 46.2563L30.461 52.9895C30.4402 53.0282 30.4093 53.0606 30.3716 53.0831C30.3339 53.1057 30.2908 53.1176 30.2468 53.1176C30.2029 53.1176 30.1597 53.1057 30.122 53.0831C30.0843 53.0606 30.0534 53.0282 30.0326 52.9895L29.7005 52.3698C29.5523 52.0837 29.3922 51.7961 29.2365 51.51C29.2173 51.4715 29.195 51.4077 29.1669 51.3544C29.1936 51.258 29.2232 51.1587 29.2499 51.0579C29.3981 50.5252 29.5464 49.9925 29.6946 49.4598C29.917 48.6692 30.1384 47.8786 30.3587 47.088C30.6305 46.1214 30.9008 45.1549 31.1696 44.1883L32.0591 41.0278L32.5038 39.4164C32.5188 39.3629 32.5516 39.3162 32.5968 39.2839C32.642 39.2517 32.6969 39.2359 32.7524 39.2392C32.8078 39.2425 32.8604 39.2647 32.9015 39.302C32.9426 39.3394 32.9697 39.3897 32.9782 39.4446C33.288 41.52 34.001 45.481 34.1137 46.0992C34.1237 46.1527 34.1154 46.2081 34.09 46.2563Z" fill="#314133"/>
</svg>
