<svg width="49" height="55" viewBox="0 0 49 55" fill="none" xmlns="http://www.w3.org/2000/svg">
<path d="M34.5348 20.9467C34.5352 20.9546 34.5352 20.9625 34.5348 20.9704C34.5348 21.0193 34.5348 21.0683 34.5244 21.1187C34.5073 21.2379 34.4821 21.3557 34.4488 21.4715L34.3154 21.9948C34.216 22.3876 34.1152 22.7819 34.0189 23.1807C33.4556 25.4014 32.8927 27.625 32.3304 29.8516C31.6297 32.6287 30.929 35.4043 30.2283 38.1784L29.4011 41.459C28.989 43.1015 28.5769 44.745 28.1648 46.3895C27.9118 47.4005 27.6593 48.412 27.4073 49.424C27.1365 50.5161 26.8662 51.6101 26.5964 52.7061C26.5074 53.0649 26.4185 53.4266 26.331 53.7868C26.3132 53.8624 26.2955 53.935 26.2762 54.0136C26.2762 54.0359 26.2525 54.0892 26.248 54.107L26.2376 54.1263L26.2065 54.104C26.1783 54.0729 26.1502 54.0447 26.125 54.0121C26.1067 53.9895 26.0899 53.9657 26.0746 53.941C26.0746 53.941 26.039 53.8728 26.0331 53.8535C26.0162 53.8052 26.0033 53.7556 25.9945 53.7053C25.9924 53.6729 25.9885 53.6408 25.9827 53.6089C25.9827 53.5778 25.9827 53.5466 25.9827 53.5155L26.0019 53.099C26.0187 52.7461 26.036 52.3928 26.0538 52.039C26.1714 49.8777 26.3226 47.7183 26.5074 45.5608C26.7595 42.6449 27.0722 39.7349 27.471 36.8338C27.8935 33.7637 28.4109 30.701 29.1106 27.6799C29.4352 26.2849 29.7999 24.8988 30.2298 23.5291C30.3286 23.2089 30.4334 22.8902 30.5441 22.5729C30.5441 22.5729 30.5441 22.5566 30.5545 22.5433L30.5663 22.5121V22.5032C30.5709 22.4916 30.5749 22.4797 30.5782 22.4677C30.6063 22.3906 30.633 22.3194 30.6597 22.2394C30.719 22.0763 30.7783 21.9147 30.8391 21.7531C31.057 21.1735 31.2927 20.5998 31.5536 20.038C31.6129 19.9075 31.6678 19.7756 31.7389 19.6511C31.755 19.6173 31.7733 19.5846 31.7938 19.5532C31.8101 19.5384 31.8293 19.5221 31.8382 19.5117C31.8471 19.5013 31.902 19.4554 31.9287 19.4272C31.9287 19.4272 31.9361 19.4272 31.939 19.4183C31.9642 19.4086 31.9885 19.3967 32.0117 19.3827C32.0393 19.3855 32.0671 19.3855 32.0947 19.3827C32.1085 19.3812 32.1224 19.3812 32.1362 19.3827H32.1762H32.194H32.2074H32.2296L32.7514 19.5458L34.1093 20.0513L34.1182 20.0587L34.1286 20.0706C34.1612 20.1062 34.1953 20.1388 34.2279 20.1744C34.2876 20.2489 34.3425 20.3272 34.3924 20.4086C34.3918 20.412 34.3918 20.4155 34.3924 20.419L34.3999 20.4427C34.4206 20.5034 34.4458 20.5613 34.4636 20.6235C34.4894 20.7163 34.5078 20.811 34.5185 20.9067C34.5282 20.9178 34.5339 20.9319 34.5348 20.9467Z" fill="#FAF6EF"/>
<path d="M27.8028 24.5671C27.8455 24.5499 27.8922 24.545 27.9375 24.5531C27.9829 24.5612 28.025 24.582 28.059 24.6129C28.0931 24.6439 28.1178 24.6839 28.1301 24.7282C28.1425 24.7726 28.1421 24.8195 28.129 24.8636C27.3155 27.8808 26.6755 30.9421 26.2122 34.0324C25.976 35.5227 25.7665 37.0165 25.5836 38.5138L25.2279 38.6961L21.7397 36.8016L17.1694 34.3156L13.195 32.1646C12.7711 31.9348 12.3501 31.6961 11.9261 31.4649C11.8856 31.4431 11.8521 31.4101 11.8297 31.37C11.8072 31.3298 11.7967 31.2841 11.7994 31.2382C11.802 31.1922 11.8177 31.148 11.8446 31.1107C11.8715 31.0734 11.9085 31.0445 11.9513 31.0275L12.1499 30.9475L16.6432 29.1167L22.0792 26.9049L26.777 24.9911L27.8028 24.5671Z" fill="#FAF6EF"/>
<path d="M25.4829 40.0892C25.5168 40.1068 25.546 40.1322 25.5682 40.1632C25.5903 40.1943 25.6048 40.2302 25.6105 40.2679C25.6161 40.3057 25.6127 40.3442 25.6006 40.3804C25.5885 40.4166 25.568 40.4494 25.5407 40.4761L23.0502 42.9532L18.9173 47.0684C18.8895 47.0964 18.8554 47.1172 18.8178 47.129C18.7802 47.1408 18.7403 47.1432 18.7016 47.136C18.6629 47.1289 18.6265 47.1124 18.5956 47.0879C18.5647 47.0635 18.5403 47.0319 18.5244 46.9958L18.3273 46.56L17.4986 44.7188C17.1616 43.9746 16.8256 43.2295 16.4905 42.4833C16.1229 41.663 15.7538 40.8428 15.3832 40.0225L14.2639 37.5409L13.2262 35.2343L12.4406 33.4984L12.7785 33.1841L15.4113 34.6146L19.9861 37.0962C21.3104 37.8157 22.6347 38.5346 23.959 39.2531C24.4689 39.5303 24.973 39.8179 25.4829 40.0892Z" fill="#FAF6EF"/>
<path d="M17.0719 48.1342C17.0866 48.1674 17.0936 48.2035 17.0925 48.2398C17.0915 48.2761 17.0823 48.3117 17.0656 48.344C17.049 48.3762 17.0253 48.4044 16.9964 48.4263C16.9675 48.4483 16.934 48.4634 16.8984 48.4707L14.4702 48.9703L8.30334 50.2378L8.01575 49.9532V49.928C8.09975 49.4645 8.18326 49.0014 8.26628 48.5389C8.39228 47.8496 8.51532 47.1618 8.64133 46.4739C8.79155 45.6398 8.94275 44.8047 9.09495 43.9686L9.59749 41.2069C9.76649 40.2769 9.9345 39.3484 10.1015 38.4214C10.2587 37.5596 10.4153 36.6978 10.5714 35.8361C10.6159 35.5855 10.6619 35.3335 10.7078 35.0815L11.1689 35.0237C11.5276 35.8192 11.8864 36.6158 12.2451 37.4133L13.3525 39.8742C13.726 40.7014 14.0991 41.529 14.4717 42.3572C14.8186 43.1251 15.1645 43.8935 15.5094 44.6624C15.8059 45.3147 16.0999 45.9674 16.3914 46.6207L17.0244 48.0275C17.0422 48.0675 17.057 48.1001 17.0719 48.1342Z" fill="#FAF6EF"/>
<path d="M9.03536 32.7143C9.07568 32.6937 9.12095 32.6848 9.16606 32.6886C9.21118 32.6923 9.25435 32.7086 9.29072 32.7356C9.32708 32.7625 9.35519 32.7991 9.37189 32.8412C9.38858 32.8833 9.3932 32.9292 9.38521 32.9738L9.30071 33.4333C9.17767 34.1211 9.05167 34.809 8.92862 35.4968C8.77544 36.3329 8.62423 37.1685 8.475 38.0036C8.30798 38.9227 8.14245 39.8423 7.97839 40.7624C7.81434 41.6825 7.64633 42.611 7.47437 43.5479L7.0074 46.1317L6.87843 46.8433L6.40554 46.8715C5.75723 44.7318 5.10892 42.5927 4.4606 40.4541C4.02922 39.028 3.58301 37.6048 3.16496 36.1743C3.15607 36.1476 3.14718 36.1209 3.13976 36.0943C3.12308 36.039 3.11508 35.9815 3.11605 35.9238C3.11605 35.8452 3.19017 35.7755 3.20351 35.7118C3.35175 35.6406 3.48813 35.5635 3.63045 35.4894L6.22172 34.1552L9.03536 32.7143Z" fill="#FAF6EF"/>
<path d="M29.3477 19.0777C29.1994 19.4009 29.0823 19.7345 28.9548 20.0576C28.6376 20.8656 28.3544 21.6883 28.098 22.5155L27.9913 22.5555L26.2346 23.27L22.0141 24.9897L16.9087 27.065C15.4381 27.658 13.967 28.2569 12.4955 28.8617C12.156 28.9996 11.8151 29.1345 11.4756 29.2709C11.4756 29.1805 11.4756 29.09 11.4874 28.9996C11.5171 28.2742 11.5477 27.5503 11.5794 26.8279C11.6238 25.7655 11.6688 24.703 11.7143 23.6406C11.7686 22.3361 11.824 21.0321 11.8803 19.7285L12.0626 15.4428L12.245 11.132L12.414 7.1146C12.4624 5.97907 12.5118 4.84254 12.5622 3.70503C12.5919 3.0157 12.6215 2.32341 12.6497 1.62964C12.6912 1.67115 14.3189 3.35073 15.0912 4.14976L18.2399 7.40812C19.4041 8.61382 20.5683 9.81656 21.7325 11.0163L25.0916 14.4808L27.7911 17.2677L29.3032 18.8228L29.3477 19.0777Z" fill="#FAF6EF"/>
<path d="M10.1756 5.13767C10.2003 5.08768 10.2413 5.04766 10.2919 5.02431C10.3425 5.00097 10.3996 4.99572 10.4536 5.00944C10.5076 5.02316 10.5553 5.05502 10.5886 5.09968C10.6219 5.14435 10.6389 5.1991 10.6367 5.25479C10.6233 5.55127 10.6115 5.84775 10.5996 6.14424L10.4217 10.3054C10.3585 11.8323 10.2942 13.3612 10.229 14.892C10.1608 16.4456 10.0946 17.9992 10.0304 19.5527C9.96811 21.0124 9.90634 22.4726 9.84507 23.9333C9.7917 25.1716 9.73932 26.4094 9.68793 27.6468C9.66866 28.1123 9.6479 28.5777 9.62863 29.0417C9.62709 29.0862 9.61328 29.1294 9.58873 29.1666C9.56418 29.2037 9.52985 29.2334 9.48951 29.2522C9.44918 29.2711 9.40441 29.2785 9.36016 29.2735C9.31591 29.2685 9.2739 29.2514 9.23876 29.2241L5.74617 26.5557C4.54837 25.6416 3.34959 24.7264 2.14981 23.8103C1.87112 23.5983 1.58797 23.3878 1.31076 23.1713C1.29346 23.1582 1.27711 23.1438 1.26184 23.1284C1.32354 23.0717 1.37386 23.0038 1.41008 22.9282C1.51237 22.7207 1.61318 22.5131 1.71546 22.3071L2.55007 20.6127C2.95921 19.7815 3.36787 18.9504 3.77603 18.1192L5.28662 15.0699L6.93211 11.7241C7.48456 10.6034 8.03651 9.48265 8.58797 8.36194C9.10583 7.31239 9.6227 6.26234 10.1386 5.2118L10.1756 5.13767Z" fill="#FAF6EF"/>
<path d="M10.8471 0.292236C10.8471 0.366357 10.8471 0.440479 10.8367 0.513117L10.8055 0.575379C10.5288 1.14068 10.2511 1.70499 9.97242 2.26831L8.74498 4.76174L7.23735 7.81553L5.59483 11.1614L3.94044 14.5235L2.38835 17.6722C1.95252 18.5616 1.51619 19.4511 1.07937 20.3405C1.04231 20.4161 1.00525 20.4888 0.966706 20.5673C0.959294 20.4102 0.950399 20.2516 0.941505 20.093C0.856512 18.5414 0.771521 16.9893 0.686528 15.4367L0.390044 10.1148C0.309993 8.57206 0.22846 7.03083 0.145444 5.49109C0.0980065 4.65006 0.0520513 3.81002 0.00757866 2.97097C0.00757866 2.92502 -0.00131576 2.87758 0.000166665 2.83014C0.00246251 2.77923 0.0134941 2.72908 0.0327799 2.6819L0.557557 2.56479L5.07302 1.56564L9.90571 0.499775L10.8471 0.292236Z" fill="#FAF6EF"/>
<path d="M43.7405 7.73218L44.2149 7.82112C44.0607 9.88466 43.9066 11.9482 43.7524 14.0117C43.5953 16.098 43.4386 18.1837 43.2825 20.269C43.2069 21.286 43.1046 22.3044 43.0542 23.3228C43.0542 23.3228 43.0542 23.3228 43.0542 23.3347L43.0097 23.3777L40.9106 25.5227L37.7975 28.704C37.7594 28.743 37.7092 28.7681 37.6552 28.7752C37.6011 28.7822 37.5462 28.7709 37.4993 28.743C37.4524 28.7151 37.4163 28.6723 37.3967 28.6214C37.3771 28.5705 37.3752 28.5145 37.3913 28.4624C37.7263 27.3753 38.0604 26.2842 38.3934 25.1892C39.0348 23.096 39.6772 21.0023 40.3206 18.9082C41.0173 16.6292 41.7146 14.3512 42.4123 12.0742L43.7405 7.73218Z" fill="#FAF6EF"/>
<path d="M48.3953 5.64873C48.3686 5.7866 48.3227 5.92298 48.2871 6.05936C47.7515 8.08337 47.2168 10.1093 46.6831 12.1373L45.5313 16.4971C45.5156 16.5555 45.4788 16.606 45.4279 16.6386C45.3771 16.6713 45.3159 16.6839 45.2563 16.6739C45.1966 16.6639 45.1429 16.6321 45.1055 16.5846C45.0681 16.5371 45.0497 16.4774 45.0539 16.417C45.1528 15.0443 45.2556 13.6711 45.3623 12.2974C45.5194 10.2111 45.6756 8.12487 45.8307 6.03861C45.8722 5.49604 45.9212 4.95348 45.9642 4.40795C45.9672 4.36749 45.9804 4.32845 46.0025 4.29444C46.0247 4.26043 46.055 4.23254 46.0907 4.21334C46.1265 4.19414 46.1665 4.18425 46.2071 4.18458C46.2476 4.18491 46.2875 4.19545 46.3229 4.21523L47.7075 4.97275C47.9728 5.12247 48.4724 5.25737 48.3953 5.64873Z" fill="#FAF6EF"/>
<path d="M36.401 39.7439C36.401 39.7647 36.3906 39.7825 36.3877 39.8017C36.3743 39.8951 36.3461 39.987 36.3269 40.0804L35.6998 42.9193C35.5323 43.6694 35.3648 44.4224 35.1987 45.1725L35.1676 44.9443C34.8207 42.2759 34.4748 39.6075 34.1299 36.9392C34.1258 36.9015 34.1342 36.8636 34.1539 36.8312C34.1736 36.7988 34.2034 36.7738 34.2387 36.7602C34.274 36.7465 34.3129 36.7448 34.3492 36.7555C34.3856 36.7661 34.4174 36.7885 34.4397 36.8191C34.8677 37.4348 35.2966 38.0495 35.7265 38.6632C35.9133 38.9345 36.1238 39.1969 36.2943 39.4786C36.3564 39.5728 36.3904 39.6829 36.3921 39.7958C36.3847 39.8329 36.398 39.7587 36.401 39.7439Z" fill="#FAF6EF"/>
<path d="M41.8905 6.55597C41.917 6.49934 41.9644 6.45518 42.0228 6.43278C42.0811 6.41038 42.1459 6.41149 42.2035 6.43587C42.2611 6.46024 42.307 6.50599 42.3315 6.5635C42.3561 6.62101 42.3574 6.68579 42.3352 6.74424C41.9399 8.02901 41.5446 9.31377 41.1492 10.5985C40.4495 12.8805 39.7508 15.1624 39.0531 17.4444C38.389 19.6117 37.7253 21.778 37.0622 23.9433C36.5374 25.657 36.0131 27.3707 35.4894 29.0843C35.2151 29.9738 33.0493 36.0013 32.8106 36.6284C32.6624 37.0287 32.9589 36.2267 32.8106 36.6284C32.8106 36.6284 35.0091 27.0668 35.6272 24.5956C35.8496 23.719 36.0719 22.8419 36.2943 21.9643C36.3388 21.7968 36.3818 21.6278 36.4233 21.4588C36.5283 21.0359 36.4859 20.5898 36.3032 20.1943C36.0765 19.7195 35.6804 19.3468 35.1929 19.1492C35.1291 19.121 39.4326 10.9958 39.4326 10.9958L41.8905 6.55597Z" fill="#FAF6EF"/>
<path d="M34.09 46.2566L30.461 52.9897C30.4402 53.0285 30.4093 53.0608 30.3716 53.0834C30.3339 53.1059 30.2908 53.1179 30.2468 53.1179C30.2029 53.1179 30.1597 53.1059 30.122 53.0834C30.0843 53.0608 30.0534 53.0285 30.0326 52.9897L29.7005 52.3701C29.5523 52.084 29.3922 51.7964 29.2365 51.5103C29.2173 51.4717 29.195 51.408 29.1669 51.3546C29.1936 51.2583 29.2232 51.1589 29.2499 51.0581C29.3981 50.5254 29.5464 49.9928 29.6946 49.4601C29.917 48.6695 30.1384 47.8788 30.3587 47.0882C30.6305 46.1217 30.9008 45.1551 31.1696 44.1886L32.0591 41.0281L32.5038 39.4167C32.5188 39.3632 32.5516 39.3164 32.5968 39.2842C32.642 39.2519 32.6969 39.2361 32.7524 39.2394C32.8078 39.2427 32.8604 39.2649 32.9015 39.3023C32.9426 39.3396 32.9697 39.3899 32.9782 39.4448C33.288 41.5202 34.001 45.4813 34.1137 46.0994C34.1237 46.153 34.1154 46.2084 34.09 46.2566Z" fill="#FAF6EF"/>
</svg>
